<svg width="29" height="28" viewBox="0 0 29 28" fill="none" xmlns="http://www.w3.org/2000/svg">
<path d="M20.3333 2.83496H8.66665C5.16665 2.83496 2.83331 5.16829 2.83331 8.66829V15.6683C2.83331 19.1683 5.16665 21.5016 8.66665 21.5016H13.3333L18.525 24.955C19.295 25.4683 20.3333 24.92 20.3333 23.9866V21.5016C23.8333 21.5016 26.1666 19.1683 26.1666 15.6683V8.66829C26.1666 5.16829 23.8333 2.83496 20.3333 2.83496ZM18.5833 13.125H10.4166C9.93831 13.125 9.54165 12.7283 9.54165 12.25C9.54165 11.7716 9.93831 11.375 10.4166 11.375H18.5833C19.0616 11.375 19.4583 11.7716 19.4583 12.25C19.4583 12.7283 19.0616 13.125 18.5833 13.125Z" fill="#ACACAC"/>
</svg>
