<svg width="26" height="25" viewBox="0 0 26 25" fill="none" xmlns="http://www.w3.org/2000/svg">
<path d="M25.8662 24.5005C25.7784 24.6525 25.6521 24.7788 25.5001 24.8666C25.348 24.9543 25.1755 25.0005 25 25.0005H0.999951C0.824502 25.0003 0.652187 24.954 0.500311 24.8661C0.348434 24.7783 0.222342 24.652 0.134695 24.5C0.0470479 24.348 0.000931552 24.1757 0.000976595 24.0002C0.00102164 23.8248 0.0472264 23.6524 0.134951 23.5005C2.0387 20.2092 4.97245 17.8492 8.3962 16.7305C6.70266 15.7223 5.38688 14.1861 4.65094 12.3577C3.91499 10.5294 3.79956 8.50997 4.32238 6.60967C4.8452 4.70936 5.97735 3.03321 7.54498 1.83863C9.11261 0.644041 11.029 -0.00292969 13 -0.00292969C14.9709 -0.00292969 16.8873 0.644041 18.4549 1.83863C20.0226 3.03321 21.1547 4.70936 21.6775 6.60967C22.2003 8.50997 22.0849 10.5294 21.349 12.3577C20.613 14.1861 19.2972 15.7223 17.6037 16.7305C21.0275 17.8492 23.9612 20.2092 25.865 23.5005C25.9529 23.6524 25.9993 23.8248 25.9996 24.0003C25.9998 24.1758 25.9538 24.3483 25.8662 24.5005Z" fill="#343330"/>
</svg>
